<svg xmlns="http://www.w3.org/2000/svg" viewBox="0 0 142.447 142.447"><g fill="#1d1d1b"><path d="M71.224 0C31.951 0 0 31.951 0 71.224s31.951 71.224 71.224 71.224 71.224-31.951 71.224-71.224S110.496 0 71.224 0zm0 127.447C40.222 127.447 15 102.226 15 71.224S40.222 15 71.224 15s56.224 25.222 56.224 56.224-25.222 56.223-56.224 56.223z"/><path d="M100.923 72.016H71.724V46.724c0-4.143-3.357-7.5-7.5-7.5s-7.5 3.357-7.5 7.5v32.792c0 4.143 3.357 7.5 7.5 7.5h36.699c4.143 0 7.5-3.357 7.5-7.5s-3.358-7.5-7.5-7.5z"/></g></svg>