<svg width="12" height="12" viewBox="0 0 12 12" fill="none" xmlns="http://www.w3.org/2000/svg">
<path d="M1.2553 11.4588C0.864771 11.0683 0.864771 10.4351 1.2553 10.0446L10.2928 1.00566C10.6833 0.615137 11.3165 0.615138 11.707 1.00566C12.0975 1.39619 12.0975 2.02935 11.707 2.41988L2.66951 11.4588C2.27898 11.8493 1.64582 11.8493 1.2553 11.4588Z" fill="#FF238D"/>
<path d="M11.6132 11.3963C12.0038 11.0058 12.0038 10.3726 11.6132 9.9821L2.63679 1.00566C2.24627 0.615137 1.6131 0.615138 1.22258 1.00566C0.832056 1.39619 0.832056 2.02935 1.22258 2.41988L10.199 11.3963C10.5896 11.7868 11.2227 11.7868 11.6132 11.3963Z" fill="#FF238D"/>
</svg>
