<svg width="15" height="10" viewBox="0 0 15 10" fill="none" xmlns="http://www.w3.org/2000/svg">
<path d="M5.26573 9.68389C4.8752 9.29336 4.8752 8.6602 5.26573 8.26967L13.0858 0.44951C13.4763 0.0589853 14.1095 0.058985 14.5 0.449509C14.8905 0.840034 14.8905 1.4732 14.5 1.86372L6.67994 9.68389C6.28942 10.0744 5.65625 10.0744 5.26573 9.68389Z" fill="#12C971"/>
<path d="M6.67994 9.68389C7.07047 9.29336 7.07041 8.6602 6.67988 8.26967L2.49995 4.08977C2.10943 3.69925 1.47626 3.69925 1.08574 4.08977C0.695216 4.4803 0.695216 5.11346 1.08574 5.50398L5.26573 9.68389C5.65625 10.0744 6.28942 10.0744 6.67994 9.68389Z" fill="#12C971"/>
</svg>
